<svg xmlns="http://www.w3.org/2000/svg" width="1324.906" height="1056" viewBox="0 0 1324.906 1056">
  <g id="BG" transform="translate(22.453 -3267.5)">
    <path id="BG-2" data-name="BG" d="M84,0H1280a0,0,0,0,1,0,0V759a84,84,0,0,1-84,84H0a0,0,0,0,1,0,0V84A84,84,0,0,1,84,0Z" transform="translate(0 3307)" fill="#0373a4"/>
    <g id="Group_37" data-name="Group 37" transform="translate(-22.453 3267.5)" opacity="0.15" style="mix-blend-mode: overlay;isolation: isolate">
      <path id="Path_39" data-name="Path 39" d="M608.059,104.154,583.647,61.869l24.413-42.281h48.826L681.3,61.869l-24.413,42.285Z" transform="translate(366.369 26.446)" fill="#d9d9d9" style="mix-blend-mode: overlay;isolation: isolate"/>
      <path id="Path_40" data-name="Path 40" d="M437.731,153.216l-24.413-42.285,24.413-42.282h48.826l24.413,42.282-24.413,42.285Z" transform="translate(217.087 69.446)" fill="#d9d9d9" style="mix-blend-mode: overlay;isolation: isolate"/>
      <path id="Path_41" data-name="Path 41" d="M522.9,153.216l-24.413-42.285L522.9,68.649h48.825l24.413,42.282-24.413,42.285Z" transform="translate(291.729 69.446)" fill="#d9d9d9" style="mix-blend-mode: overlay;isolation: isolate"/>
      <path id="Path_42" data-name="Path 42" d="M565.481,128.684,541.064,86.4l24.417-42.285h48.825L638.719,86.4l-24.413,42.281Z" transform="translate(329.048 47.945)" fill="#d9d9d9" style="mix-blend-mode: overlay;isolation: isolate"/>
      <path id="Path_43" data-name="Path 43" d="M522.9,202.278l-24.413-42.285L522.9,117.711h48.825l24.413,42.282-24.413,42.285Z" transform="translate(291.729 137.93)" fill="#d9d9d9" style="mix-blend-mode: overlay;isolation: isolate"/>
      <path id="Path_44" data-name="Path 44" d="M608.059,202.278l-24.413-42.285,24.413-42.282h48.826L681.3,159.993l-24.413,42.285Z" transform="translate(366.369 137.93)" fill="#d9d9d9" style="mix-blend-mode: overlay;isolation: isolate"/>
      <path id="Path_45" data-name="Path 45" d="M650.642,177.746l-24.413-42.281L650.642,93.18h48.825l24.413,42.285-24.413,42.281Z" transform="translate(403.689 111.333)" fill="#d9d9d9" style="mix-blend-mode: overlay;isolation: isolate"/>
      <path id="Path_46" data-name="Path 46" d="M395.149,226.812l-24.413-42.285,24.413-42.285h48.829l24.413,42.285-24.413,42.285Z" transform="translate(179.766 164.526)" fill="#d9d9d9" style="mix-blend-mode: overlay;isolation: isolate"/>
      <path id="Path_47" data-name="Path 47" d="M437.731,251.34l-24.413-42.281,24.413-42.285h48.826l24.413,42.285L486.557,251.34Z" transform="translate(217.087 191.124)" fill="#d9d9d9" style="mix-blend-mode: overlay;isolation: isolate"/>
      <path id="Path_48" data-name="Path 48" d="M480.314,226.812,455.9,184.527l24.413-42.285H529.14l24.413,42.285L529.14,226.812Z" transform="translate(254.408 164.526)" fill="#d9d9d9" style="mix-blend-mode: overlay;isolation: isolate"/>
      <path id="Path_49" data-name="Path 49" d="M565.481,226.812l-24.417-42.285,24.417-42.285h48.825l24.413,42.285-24.413,42.285Z" transform="translate(329.048 164.526)" fill="#d9d9d9" style="mix-blend-mode: overlay;isolation: isolate"/>
      <path id="Path_50" data-name="Path 50" d="M309.986,275.872l-24.413-42.285,24.413-42.281h48.826l24.413,42.281-24.413,42.285Z" transform="translate(105.126 217.722)" fill="#d9d9d9" style="mix-blend-mode: overlay;isolation: isolate"/>
      <path id="Path_51" data-name="Path 51" d="M437.731,300.4l-24.413-42.281,24.413-42.285h48.826l24.413,42.285L486.557,300.4Z" transform="translate(217.087 244.318)" fill="#d9d9d9" style="mix-blend-mode: overlay;isolation: isolate"/>
      <path id="Path_52" data-name="Path 52" d="M522.9,300.4l-24.413-42.281L522.9,215.836h48.825l24.413,42.285L571.722,300.4Z" transform="translate(291.729 244.318)" fill="#d9d9d9" style="mix-blend-mode: overlay;isolation: isolate"/>
      <path id="Path_53" data-name="Path 53" d="M565.481,275.872l-24.417-42.285,24.417-42.281h48.825l24.413,42.281-24.413,42.285Z" transform="translate(329.048 217.722)" fill="#d9d9d9" style="mix-blend-mode: overlay;isolation: isolate"/>
      <path id="Path_54" data-name="Path 54" d="M608.059,300.4l-24.413-42.281,24.413-42.285h48.826L681.3,258.121,656.885,300.4Z" transform="translate(366.369 244.318)" fill="#d9d9d9" style="mix-blend-mode: overlay;isolation: isolate"/>
      <path id="Path_55" data-name="Path 55" d="M395.149,324.935,370.736,282.65l24.413-42.281h48.829l24.413,42.281-24.413,42.285Z" transform="translate(179.766 270.916)" fill="#d9d9d9" style="mix-blend-mode: overlay;isolation: isolate"/>
      <path id="Path_56" data-name="Path 56" d="M437.731,349.464l-24.413-42.281L437.731,264.9h48.826l24.413,42.285-24.413,42.281Z" transform="translate(217.087 297.512)" fill="#d9d9d9" style="mix-blend-mode: overlay;isolation: isolate"/>
      <path id="Path_57" data-name="Path 57" d="M480.314,324.935,455.9,282.65l24.413-42.281H529.14l24.413,42.281L529.14,324.935Z" transform="translate(254.408 270.916)" fill="#d9d9d9" style="mix-blend-mode: overlay;isolation: isolate"/>
      <path id="Path_58" data-name="Path 58" d="M437.731,398.527l-24.413-42.281,24.413-42.285h48.826l24.413,42.285-24.413,42.281Z" transform="translate(217.087 350.705)" fill="#d9d9d9" style="mix-blend-mode: overlay;isolation: isolate"/>
      <path id="Path_59" data-name="Path 59" d="M522.9,398.527l-24.413-42.281L522.9,313.96h48.825l24.413,42.285-24.413,42.281Z" transform="translate(291.729 350.705)" fill="#d9d9d9" style="mix-blend-mode: overlay;isolation: isolate"/>
      <path id="Path_60" data-name="Path 60" d="M565.481,374l-24.417-42.285,24.417-42.281h48.825l24.413,42.281L614.306,374Z" transform="translate(329.048 324.109)" fill="#d9d9d9" style="mix-blend-mode: overlay;isolation: isolate"/>
      <path id="Path_61" data-name="Path 61" d="M352.569,447.589l-24.413-42.281,24.413-42.285h48.825l24.413,42.285-24.413,42.281Z" transform="translate(142.447 403.899)" fill="#d9d9d9" style="mix-blend-mode: overlay;isolation: isolate"/>
      <path id="Path_62" data-name="Path 62" d="M309.986,472.121l-24.413-42.285,24.413-42.281h48.826l24.413,42.281-24.413,42.285Z" transform="translate(105.126 445.787)" fill="#d9d9d9" style="mix-blend-mode: overlay;isolation: isolate"/>
      <path id="Path_63" data-name="Path 63" d="M395.149,472.121l-24.413-42.285,24.413-42.281h48.829l24.413,42.281-24.413,42.285Z" transform="translate(179.766 445.787)" fill="#d9d9d9" style="mix-blend-mode: overlay;isolation: isolate"/>
      <path id="Path_64" data-name="Path 64" d="M480.314,472.121,455.9,429.836l24.413-42.281H529.14l24.413,42.281L529.14,472.121Z" transform="translate(254.408 445.787)" fill="#d9d9d9" style="mix-blend-mode: overlay;isolation: isolate"/>
      <path id="Path_65" data-name="Path 65" d="M352.569,545.714l-24.413-42.281,24.413-42.285h48.825l24.413,42.285-24.413,42.281Z" transform="translate(142.447 510.286)" fill="#d9d9d9" style="mix-blend-mode: overlay;isolation: isolate"/>
      <path id="Path_66" data-name="Path 66" d="M395.149,521.183,370.736,478.9l24.413-42.281h48.829L468.391,478.9l-24.413,42.285Z" transform="translate(179.766 488.787)" fill="#d9d9d9" style="mix-blend-mode: overlay;isolation: isolate"/>
      <path id="Path_67" data-name="Path 67" d="M608.059,104.154,583.647,61.869l24.413-42.281h48.826L681.3,61.869l-24.413,42.285Z" transform="translate(366.369 26.446)" fill="#d9d9d9" style="mix-blend-mode: overlay;isolation: isolate"/>
      <path id="Path_68" data-name="Path 68" d="M522.9,202.278l-24.413-42.285L522.9,117.711h48.825l24.413,42.282-24.413,42.285Z" transform="translate(291.729 137.93)" fill="#d9d9d9" style="mix-blend-mode: overlay;isolation: isolate"/>
      <path id="Path_69" data-name="Path 69" d="M437.731,300.4l-24.413-42.281,24.413-42.285h48.826l24.413,42.285L486.557,300.4Z" transform="translate(217.087 244.318)" fill="#d9d9d9" style="mix-blend-mode: overlay;isolation: isolate"/>
      <path id="Path_70" data-name="Path 70" d="M565.481,275.872l-24.417-42.285,24.417-42.281h48.825l24.413,42.281-24.413,42.285Z" transform="translate(329.048 217.722)" fill="#d9d9d9" style="mix-blend-mode: overlay;isolation: isolate"/>
      <path id="Path_71" data-name="Path 71" d="M480.314,472.121,455.9,429.836l24.413-42.281H529.14l24.413,42.281L529.14,472.121Z" transform="translate(254.408 445.787)" fill="#d9d9d9" style="mix-blend-mode: overlay;isolation: isolate"/>
      <path id="Path_72" data-name="Path 72" d="M395.149,521.183,370.736,478.9l24.413-42.281h48.829L468.391,478.9l-24.413,42.285Z" transform="translate(179.766 488.787)" fill="#d9d9d9" style="mix-blend-mode: overlay;isolation: isolate"/>
      <g id="Group_35" data-name="Group 35" transform="translate(0 0)">
        <path id="Path_73" data-name="Path 73" d="M650.642,79.621,626.229,37.34,650.642-4.945h48.825L723.881,37.34,699.468,79.621Z" transform="translate(403.69 4.945)" fill="#d9d9d9" opacity="0.3" style="mix-blend-mode: overlay;isolation: isolate"/>
        <path id="Path_74" data-name="Path 74" d="M735.807,79.621,711.394,37.34,735.807-4.945h48.825L809.045,37.34,784.632,79.621Z" transform="translate(478.332 4.945)" fill="#d9d9d9" opacity="0.3" style="mix-blend-mode: overlay;isolation: isolate"/>
        <path id="Path_75" data-name="Path 75" d="M480.314,128.684,455.9,86.4l24.413-42.285H529.14L553.553,86.4,529.14,128.684Z" transform="translate(254.408 47.945)" fill="#d9d9d9" opacity="0.3" style="mix-blend-mode: overlay;isolation: isolate"/>
        <path id="Path_76" data-name="Path 76" d="M352.569,202.278l-24.413-42.285,24.413-42.282h48.825l24.413,42.282-24.413,42.285Z" transform="translate(142.447 137.93)" fill="#d9d9d9" opacity="0.3" style="mix-blend-mode: overlay;isolation: isolate"/>
        <path id="Path_77" data-name="Path 77" d="M565.481,177.746l-24.417-42.281L565.481,93.18h48.825l24.413,42.285-24.413,42.281Z" transform="translate(329.048 111.333)" fill="#d9d9d9" opacity="0.3" style="mix-blend-mode: overlay;isolation: isolate"/>
        <path id="Path_78" data-name="Path 78" d="M735.807,177.746l-24.413-42.281L735.807,93.18h48.825l24.413,42.285-24.413,42.281Z" transform="translate(478.332 111.333)" fill="#d9d9d9" opacity="0.3" style="mix-blend-mode: overlay;isolation: isolate"/>
        <path id="Path_79" data-name="Path 79" d="M267.4,251.34l-24.413-42.281L267.4,166.774h48.826l24.413,42.285L316.229,251.34Z" transform="translate(67.805 191.124)" fill="#d9d9d9" opacity="0.3" style="mix-blend-mode: overlay;isolation: isolate"/>
        <path id="Path_80" data-name="Path 80" d="M352.569,251.34l-24.413-42.281,24.413-42.285h48.825l24.413,42.285L401.394,251.34Z" transform="translate(142.447 191.124)" fill="#d9d9d9" opacity="0.3" style="mix-blend-mode: overlay;isolation: isolate"/>
        <path id="Path_81" data-name="Path 81" d="M650.642,226.812l-24.413-42.285,24.413-42.285h48.825l24.413,42.285-24.413,42.285Z" transform="translate(403.69 164.526)" fill="#d9d9d9" opacity="0.3" style="mix-blend-mode: overlay;isolation: isolate"/>
        <path id="Path_82" data-name="Path 82" d="M480.314,275.872,455.9,233.587l24.413-42.281H529.14l24.413,42.281L529.14,275.872Z" transform="translate(254.408 217.722)" fill="#d9d9d9" opacity="0.3" style="mix-blend-mode: overlay;isolation: isolate"/>
        <path id="Path_83" data-name="Path 83" d="M352.569,349.464l-24.413-42.281L352.569,264.9h48.825l24.413,42.285-24.413,42.281Z" transform="translate(142.447 297.512)" fill="#d9d9d9" opacity="0.3" style="mix-blend-mode: overlay;isolation: isolate"/>
        <path id="Path_84" data-name="Path 84" d="M480.314,423.059,455.9,380.774l24.413-42.281H529.14l24.413,42.281L529.14,423.059Z" transform="translate(254.408 377.303)" fill="#d9d9d9" opacity="0.3" style="mix-blend-mode: overlay;isolation: isolate"/>
        <path id="Path_85" data-name="Path 85" d="M565.481,423.059l-24.417-42.285,24.417-42.281h48.825l24.413,42.281-24.413,42.285Z" transform="translate(329.048 377.303)" fill="#d9d9d9" opacity="0.3" style="mix-blend-mode: overlay;isolation: isolate"/>
        <path id="Path_86" data-name="Path 86" d="M643.468,357.109l-15.033-26.035,15.033-26.033H673.53l15.031,26.033L673.53,357.109Z" transform="translate(405.623 338.727)" fill="#d9d9d9" opacity="0.3" style="mix-blend-mode: overlay;isolation: isolate"/>
        <path id="Path_87" data-name="Path 87" d="M723.468,304.374,708.435,278.34l15.033-26.033H753.53l15.031,26.033L753.53,304.374Z" transform="translate(475.738 281.945)" fill="#d9d9d9" opacity="0.3" style="mix-blend-mode: overlay;isolation: isolate"/>
        <path id="Path_88" data-name="Path 88" d="M713.322,454.3l-9.888-17.124,9.888-17.122h19.772l9.886,17.122L733.095,454.3Z" transform="translate(471.356 474.272)" fill="#d9d9d9" opacity="0.3" style="mix-blend-mode: overlay;isolation: isolate"/>
        <path id="Path_89" data-name="Path 89" d="M757.248,221.05l-9.888-17.124,9.888-17.122H777.02l9.886,17.122L777.02,221.05Z" transform="translate(509.853 210.674)" fill="#d9d9d9" opacity="0.3" style="mix-blend-mode: overlay;isolation: isolate"/>
        <path id="Path_90" data-name="Path 90" d="M238.322,59.3l-9.888-17.124,9.888-17.122h19.772l9.886,17.122L258.095,59.3Z" transform="translate(55.048 31.238)" fill="#d9d9d9" opacity="0.3" style="mix-blend-mode: overlay;isolation: isolate"/>
        <path id="Path_91" data-name="Path 91" d="M157.248,284.3l-9.888-17.124,9.888-17.122H177.02l9.886,17.122L177.02,284.3Z" transform="translate(-16.009 278.536)" fill="#d9d9d9" opacity="0.3" style="mix-blend-mode: overlay;isolation: isolate"/>
        <path id="Path_92" data-name="Path 92" d="M232.248,401.05l-9.888-17.124,9.888-17.122H252.02l9.886,17.122L252.02,401.05Z" transform="translate(49.724 403.797)" fill="#d9d9d9" opacity="0.3" style="mix-blend-mode: overlay;isolation: isolate"/>
        <path id="Path_93" data-name="Path 93" d="M87.248,499.3,77.36,482.177l9.888-17.122H107.02l9.886,17.122L107.02,499.3Z" transform="translate(-77.36 513.711)" fill="#d9d9d9" opacity="0.3" style="mix-blend-mode: overlay;isolation: isolate"/>
        <path id="Path_94" data-name="Path 94" d="M541.426,469.374,526.392,443.34l15.033-26.033h30.062l15.031,26.033-15.031,26.035Z" transform="translate(316.189 471.863)" fill="#d9d9d9" opacity="0.3" style="mix-blend-mode: overlay;isolation: isolate"/>
        <path id="Path_95" data-name="Path 95" d="M701.426,214.374,686.392,188.34l15.033-26.033h30.062l15.031,26.033-15.031,26.035Z" transform="translate(456.419 185.036)" fill="#d9d9d9" opacity="0.3" style="mix-blend-mode: overlay;isolation: isolate"/>
        <path id="Path_96" data-name="Path 96" d="M411.425,67.122,396.392,41.088l15.033-26.033h30.062l15.031,26.033L441.487,67.122Z" transform="translate(202.252 22.474)" fill="#d9d9d9" opacity="0.3" style="mix-blend-mode: overlay;isolation: isolate"/>
        <path id="Path_97" data-name="Path 97" d="M266.425,339.374l-15.033-26.035,15.033-26.033h30.062l15.031,26.033-15.031,26.035Z" transform="translate(75.168 319.632)" fill="#d9d9d9" opacity="0.3" style="mix-blend-mode: overlay;isolation: isolate"/>
        <path id="Path_98" data-name="Path 98" d="M203.468,492.122l-15.033-26.035,15.033-26.033H233.53l15.031,26.033L233.53,492.122Z" transform="translate(19.99 491.8)" fill="#d9d9d9" opacity="0.3" style="mix-blend-mode: overlay;isolation: isolate"/>
        <path id="Path_99" data-name="Path 99" d="M378.468,129.374,363.435,103.34l15.033-26.033H408.53l15.031,26.033L408.53,129.374Z" transform="translate(173.367 93.511)" fill="#d9d9d9" opacity="0.3" style="mix-blend-mode: overlay;isolation: isolate"/>
        <path id="Path_100" data-name="Path 100" d="M308.468,99.374,293.435,73.34l15.033-26.033H338.53L353.561,73.34,338.53,99.374Z" transform="translate(112.016 50.741)" fill="#d9d9d9" opacity="0.3" style="mix-blend-mode: overlay;isolation: isolate"/>
        <path id="Path_101" data-name="Path 101" d="M628.468,424.374,613.435,398.34l15.033-26.033H658.53l15.031,26.033L658.53,424.374Z" transform="translate(392.476 411.157)" fill="#d9d9d9" opacity="0.3" style="mix-blend-mode: overlay;isolation: isolate"/>
        <path id="Path_102" data-name="Path 102" d="M303.468,187.122l-15.033-26.035,15.033-26.032H333.53l15.031,26.032L333.53,187.122Z" transform="translate(107.634 155.692)" fill="#d9d9d9" opacity="0.3" style="mix-blend-mode: overlay;isolation: isolate"/>
        <path id="Path_103" data-name="Path 103" d="M766.425,107.122,751.392,81.088l15.033-26.033h30.062l15.031,26.033-15.031,26.035Z" transform="translate(513.387 57.531)" fill="#d9d9d9" opacity="0.3" style="mix-blend-mode: overlay;isolation: isolate"/>
        <path id="Path_104" data-name="Path 104" d="M598.468,529.374,583.435,503.34l15.033-26.033H628.53l15.031,26.033L628.53,529.374Z" transform="translate(366.183 524.449)" fill="#d9d9d9" opacity="0.3" style="mix-blend-mode: overlay;isolation: isolate"/>
        <path id="Path_105" data-name="Path 105" d="M143.468,444.374,128.435,418.34l15.033-26.033H173.53l15.031,26.033L173.53,444.374Z" transform="translate(-32.596 432.692)" fill="#d9d9d9" opacity="0.3" style="mix-blend-mode: overlay;isolation: isolate"/>
        <path id="Path_106" data-name="Path 106" d="M267.4,496.651,242.991,454.37,267.4,412.085h48.826l24.413,42.285-24.413,42.282Z" transform="translate(67.805 467.286)" fill="#d9d9d9" opacity="0.3" style="mix-blend-mode: overlay;isolation: isolate"/>
        <path id="Path_107" data-name="Path 107" d="M437.731,545.714l-24.413-42.281,24.413-42.285h48.826l24.413,42.285-24.413,42.281Z" transform="translate(217.087 510.286)" fill="#d9d9d9" opacity="0.3" style="mix-blend-mode: overlay;isolation: isolate"/>
      </g>
      <g id="Group_36" data-name="Group 36" transform="translate(470.602 0)" opacity="0.6">
        <path id="Path_108" data-name="Path 108" d="M565.481,79.621,541.064,37.34,565.481-4.945h48.825L638.719,37.34,614.306,79.621Z" transform="translate(-141.554 4.945)" fill="#d9d9d9" style="mix-blend-mode: overlay;isolation: isolate"/>
        <path id="Path_109" data-name="Path 109" d="M608.059,153.216l-24.413-42.285,24.413-42.282h48.826L681.3,110.931l-24.413,42.285Z" transform="translate(-104.234 85.586)" fill="#d9d9d9" style="mix-blend-mode: overlay;isolation: isolate"/>
        <path id="Path_110" data-name="Path 110" d="M650.642,128.684,626.229,86.4l24.413-42.285h48.825L723.881,86.4l-24.413,42.281Z" transform="translate(-66.912 47.945)" fill="#d9d9d9" style="mix-blend-mode: overlay;isolation: isolate"/>
        <path id="Path_111" data-name="Path 111" d="M693.225,153.216l-24.413-42.285,24.413-42.282H742.05l24.413,42.282L742.05,153.216Z" transform="translate(-29.592 85.586)" fill="#d9d9d9" style="mix-blend-mode: overlay;isolation: isolate"/>
        <path id="Path_112" data-name="Path 112" d="M437.731,202.278l-24.413-42.285,24.413-42.282h48.826l24.413,42.282-24.413,42.285Z" transform="translate(-253.515 139.346)" fill="#d9d9d9" style="mix-blend-mode: overlay;isolation: isolate"/>
        <path id="Path_113" data-name="Path 113" d="M522.9,251.34l-24.413-42.281L522.9,166.774h48.825l24.413,42.285L571.722,251.34Z" transform="translate(-178.874 193.106)" fill="#d9d9d9" style="mix-blend-mode: overlay;isolation: isolate"/>
        <path id="Path_114" data-name="Path 114" d="M395.149,275.872l-24.413-42.285,24.413-42.281h48.829l24.413,42.281-24.413,42.285Z" transform="translate(-290.836 219.987)" fill="#d9d9d9" style="mix-blend-mode: overlay;isolation: isolate"/>
        <path id="Path_115" data-name="Path 115" d="M650.642,275.872l-24.413-42.285,24.413-42.281h48.825l24.413,42.281-24.413,42.285Z" transform="translate(-66.912 219.987)" fill="#d9d9d9" style="mix-blend-mode: overlay;isolation: isolate"/>
        <path id="Path_116" data-name="Path 116" d="M522.9,349.464l-24.413-42.281L522.9,264.9h48.825l24.413,42.285-24.413,42.281Z" transform="translate(-178.874 300.626)" fill="#d9d9d9" style="mix-blend-mode: overlay;isolation: isolate"/>
        <path id="Path_117" data-name="Path 117" d="M395.149,374l-24.413-42.285,24.413-42.281h48.829l24.413,42.281L443.978,374Z" transform="translate(-290.836 327.507)" fill="#d9d9d9" style="mix-blend-mode: overlay;isolation: isolate"/>
        <path id="Path_118" data-name="Path 118" d="M437.731,447.589l-24.413-42.281,24.413-42.285h48.826l24.413,42.285-24.413,42.281Z" transform="translate(-253.515 408.146)" fill="#d9d9d9" style="mix-blend-mode: overlay;isolation: isolate"/>
        <path id="Path_119" data-name="Path 119" d="M352.569,496.651,328.156,454.37l24.413-42.285h48.825l24.413,42.285-24.413,42.282Z" transform="translate(-328.156 467.286)" fill="#d9d9d9" style="mix-blend-mode: overlay;isolation: isolate"/>
        <path id="Path_120" data-name="Path 120" d="M480.314,521.183,455.9,478.9l24.413-42.281H529.14L553.553,478.9,529.14,521.183Z" transform="translate(-216.195 488.787)" fill="#d9d9d9" style="mix-blend-mode: overlay;isolation: isolate"/>
      </g>
    </g>
  </g>
</svg>
