<svg id="p1" xmlns="http://www.w3.org/2000/svg" xmlns:xlink="http://www.w3.org/1999/xlink" width="30" height="30" viewBox="0 0 30 30">
  <defs>
    <clipPath id="clip-path">
      <rect id="Base" width="20" height="20" fill="#777"/>
    </clipPath>
  </defs>
  <rect id="Base-2" data-name="Base" width="30" height="30" fill="none"/>
  <g id="Mask_Group_20" data-name="Mask Group 20" transform="translate(5 5)" clip-path="url(#clip-path)">
    <g id="perm_identity_black_24dp">
      <path id="Path_246" data-name="Path 246" d="M0,0H20V20H0Z" fill="none"/>
      <path id="Path_247" data-name="Path 247" d="M10,5A1.667,1.667,0,1,1,8.333,6.667,1.672,1.672,0,0,1,10,5m0,7.5c2.25,0,4.833,1.075,5,1.667V15H5v-.825c.167-.6,2.75-1.675,5-1.675m0-9.167a3.333,3.333,0,1,0,3.333,3.333A3.332,3.332,0,0,0,10,3.333Zm0,7.5c-2.225,0-6.667,1.117-6.667,3.333v2.5H16.667v-2.5C16.667,11.95,12.225,10.833,10,10.833Z" fill="#777"/>
    </g>
  </g>
</svg>
