<svg xmlns="http://www.w3.org/2000/svg" xmlns:xlink="http://www.w3.org/1999/xlink" width="30" height="30" viewBox="0 0 30 30">
  <defs>
    <clipPath id="clip-path">
      <rect id="Base" width="20" height="20" transform="translate(4090.986 3748.986)" fill="#888"/>
    </clipPath>
  </defs>
  <g id="p3" transform="translate(-4088 -3746)">
    <rect id="Base-2" data-name="Base" width="30" height="30" transform="translate(4088 3746)" fill="none"/>
    <g id="Mask_Group_19" data-name="Mask Group 19" transform="translate(2.014 2.014)" clip-path="url(#clip-path)">
      <g id="email_black_24dp_1_" data-name="email_black_24dp (1)" transform="translate(4091 3749)">
        <path id="Path_244" data-name="Path 244" d="M0,0H19.972V19.972H0Z" fill="none"/>
        <path id="Path_245" data-name="Path 245" d="M18.643,5.664A1.669,1.669,0,0,0,16.979,4H3.664A1.669,1.669,0,0,0,2,5.664V15.65a1.669,1.669,0,0,0,1.664,1.664H16.979a1.669,1.669,0,0,0,1.664-1.664Zm-1.664,0L10.322,9.825,3.664,5.664Zm0,9.986H3.664V7.329l6.657,4.161,6.657-4.161Z" transform="translate(-0.336 -0.671)" fill="#888"/>
      </g>
    </g>
  </g>
</svg>
