<svg xmlns="http://www.w3.org/2000/svg" xmlns:xlink="http://www.w3.org/1999/xlink" width="30" height="30" viewBox="0 0 30 30">
  <defs>
    <clipPath id="clip-path">
      <rect id="Base" width="20" height="20" transform="translate(4093 3751)" fill="#777"/>
    </clipPath>
  </defs>
  <g id="p4" transform="translate(-4088 -3746)">
    <rect id="Base-2" data-name="Base" width="30" height="30" transform="translate(4088 3746)" fill="none"/>
    <g id="Mask_Group_21" data-name="Mask Group 21" clip-path="url(#clip-path)">
      <g id="manage_search_black_24dp" transform="translate(4093 3751)">
        <g id="Group_217" data-name="Group 217">
          <path id="Path_249" data-name="Path 249" d="M0,0H20V20H0Z" fill="none"/>
        </g>
        <g id="Group_218" data-name="Group 218">
          <path id="Path_250" data-name="Path 250" d="M5.833,7.5H1.667V5.833H5.833Zm0,2.5H1.667v1.667H5.833Zm11.325,5.833-3.192-3.192a4.167,4.167,0,1,1,1.867-3.475,4.149,4.149,0,0,1-.692,2.292l3.192,3.2ZM14.167,9.167a2.5,2.5,0,1,0-2.5,2.5A2.507,2.507,0,0,0,14.167,9.167Zm-12.5,6.667H10V14.167H1.667Z" fill="#777"/>
        </g>
      </g>
    </g>
  </g>
</svg>
