<svg id="person_outline_black_24dp" xmlns="http://www.w3.org/2000/svg" width="35.351" height="35.351" viewBox="0 0 35.351 35.351">
  <path id="Path_7" data-name="Path 7" d="M0,0H35.351V35.351H0Z" fill="none"/>
  <path id="Path_8" data-name="Path 8" d="M15.456,6.721a3.007,3.007,0,1,1-3.007,3.007,3.007,3.007,0,0,1,3.007-3.007m0,12.889c4.253,0,8.736,2.091,8.736,3.007v1.575H6.721V22.617c0-.917,4.482-3.007,8.736-3.007M15.456,4a5.728,5.728,0,1,0,5.728,5.728A5.727,5.727,0,0,0,15.456,4Zm0,12.889C11.633,16.889,4,18.807,4,22.617v4.3H26.913v-4.3C26.913,18.807,19.28,16.889,15.456,16.889Z" transform="translate(2.219 2.219)" fill="#fff"/>
</svg>
