<svg id="widgets_black_24dp" xmlns="http://www.w3.org/2000/svg" width="19.905" height="19.905" viewBox="0 0 19.905 19.905">
  <path id="Path_3" data-name="Path 3" d="M0,0H19.9V19.9H0Z" fill="none"/>
  <path id="Path_4" data-name="Path 4" d="M14.329,4.037l2.347,2.347L14.329,8.731,11.982,6.384l2.347-2.347m-6.353.4V7.753H4.659V4.435H7.976m8.294,8.294v3.317H12.952V12.729H16.27m-8.294,0v3.317H4.659V12.729H7.976M14.329,1.69,9.635,6.376l4.694,4.694,4.694-4.694L14.329,1.69ZM9.635,2.776H3V9.411H9.635Zm8.294,8.294H11.294v6.635h6.635Zm-8.294,0H3v6.635H9.635Z" transform="translate(-0.512 -0.288)" fill="#0373a4"/>
</svg>
