<svg xmlns="http://www.w3.org/2000/svg" width="19.705" height="17.281" viewBox="0 0 19.705 17.281">
  <g id="cancel" transform="translate(-2.994 -2.996)">
    <path id="Path_571" data-name="Path 571" d="M21.936,20.277a.815.815,0,0,1-.538-.193L3.219,4.135a.611.611,0,0,1,0-.944.838.838,0,0,1,1.076,0l18.18,15.949a.609.609,0,0,1,0,.944.815.815,0,0,1-.538.193Z" transform="translate(0.001 0)" fill="#e44"/>
    <path id="Path_572" data-name="Path 572" d="M3.756,20.277a.815.815,0,0,1-.538-.193.609.609,0,0,1,0-.944L21.4,3.191a.838.838,0,0,1,1.076,0,.611.611,0,0,1,0,.944L4.294,20.084A.815.815,0,0,1,3.756,20.277Z" transform="translate(0 0)" fill="#e44"/>
  </g>
</svg>
