<svg xmlns="http://www.w3.org/2000/svg" width="156" height="130.279" viewBox="0 0 156 130.279">
  <g id="Group_362" data-name="Group 362" transform="translate(-24.283)">
    <ellipse id="Ellipse_20" data-name="Ellipse 20" cx="45.5" cy="46" rx="45.5" ry="46" transform="translate(89.283 0.456)" fill="rgba(26,175,209,0.15)"/>
    <g id="Group_367" data-name="Group 367" transform="translate(24.283 0)">
      <g id="Group_366" data-name="Group 366" transform="translate(0 0)">
        <path id="Path_467" data-name="Path 467" d="M65.16,0a65.14,65.14,0,1,0,65.16,65.14A65.224,65.224,0,0,0,65.16,0Zm0,125.269A60.129,60.129,0,1,1,125.309,65.14,60.209,60.209,0,0,1,65.16,125.269Z" transform="translate(0 0)" fill="#4b9e90"/>
        <path id="Path_469" data-name="Path 469" d="M89.391,334.386a49.031,49.031,0,0,1-34.572-34.571,2.716,2.716,0,1,0-5.247,1.406,54.476,54.476,0,0,0,38.413,38.412,2.716,2.716,0,0,0,1.406-5.247Z" transform="translate(-36.96 -222.185)" fill="#4b9e90"/>
        <path id="Path_470" data-name="Path 470" d="M301.221,49.57a2.716,2.716,0,0,0-1.406,5.247,49.027,49.027,0,0,1,34.571,34.571,2.716,2.716,0,0,0,5.247-1.406A54.473,54.473,0,0,0,301.221,49.57Z" transform="translate(-222.078 -37.067)" fill="#4b9e90"/>
        <path id="Path_471" data-name="Path 471" d="M235.113,447.631c-.678-.023-1.363-.06-2.034-.11a2.716,2.716,0,0,0-.406,5.417c.745.056,1.5.1,2.257.122l.093,0a2.716,2.716,0,0,0,.09-5.431Z" transform="translate(-171.652 -333.791)" fill="#4b9e90"/>
        <path id="Path_472" data-name="Path 472" d="M254.689,48.113c.676.023,1.362.061,2.037.11.068.005.136.007.2.007a2.716,2.716,0,0,0,.2-5.425c-.748-.055-1.506-.1-2.254-.122a2.716,2.716,0,0,0-.185,5.429Z" transform="translate(-187.983 -32.001)" fill="#4b9e90"/>
        <path id="Path_473" data-name="Path 473" d="M184.312,153.418A8.766,8.766,0,0,0,178.07,156l-28.335,28.334-6.724-6.725a8.829,8.829,0,0,0-12.485,12.486l12.985,12.985.112.11.06.056.114.106c.017.016.034.031.051.046l.117.1.048.041.119.1.047.039.12.1.064.05.123.092.06.044.124.089.051.036.126.085.054.036.128.082.058.037.13.078.066.039.131.074.052.029.132.071.057.03.134.068.065.032.135.064.06.028.136.061.062.027.138.057.054.022.138.054.067.025.14.051.068.023.14.047.06.019.142.044.067.02.142.04.045.012.142.037.086.021.144.032.047.01.144.03.079.015.08.015c.044.009.088.017.133.023l.145.022.049.007.146.019.073.009.146.016.05,0,.146.013.084.006.147.008.058,0,.146.005h.054l.147,0h.079l.147,0h.054l.147-.005.068,0,.147-.008.065,0,.146-.012.057-.005.146-.016.072-.008.146-.02.052-.007.145-.022c.045-.007.089-.015.133-.024l.079-.014.076-.015.145-.03.059-.013.144-.033.062-.016.143-.037.059-.016.142-.04.068-.02.141-.044.06-.019.141-.047.066-.023.141-.051.055-.021.138-.053.076-.031.137-.058.038-.016.137-.061.078-.036.134-.064.056-.028.134-.068.061-.032.132-.071.052-.029.131-.074.068-.04.13-.078.061-.038.128-.082.045-.029.126-.085.056-.039.124-.089.062-.045.122-.092.062-.048.12-.1.039-.032.119-.1c.034-.028.068-.058.1-.088l.074-.066.042-.038.115-.106.062-.058.112-.109c.021-.02.042-.041.062-.062l34.54-34.539a8.823,8.823,0,0,0-6.243-15.065Zm2.4,11.223-34.594,34.593-.193.176-.462.328-.525.25-.655.173-.551.044h-.081l-.576-.062-.554-.157-.589-.29-.478-.361-13.09-13.084a3.4,3.4,0,0,1,4.8-4.8l8.644,8.645a2.715,2.715,0,0,0,3.841,0l30.255-30.255a3.4,3.4,0,0,1,4.8,4.8Z" transform="translate(-95.456 -114.552)" fill="#4b9e90"/>
      </g>
    </g>
  </g>
</svg>
