<svg xmlns="http://www.w3.org/2000/svg" width="134.555" height="126.32" viewBox="0 0 134.555 126.32">
  <g id="Group_362" data-name="Group 362" transform="translate(-0.026 0.544)">
    <ellipse id="Ellipse_20" data-name="Ellipse 20" cx="45.5" cy="46" rx="45.5" ry="46" transform="translate(43.581 -0.544)" fill="#fcb813" opacity="0.2"/>
    <g id="warning-error-svgrepo-com" transform="translate(0.026 -21.627)">
      <g id="Group_365" data-name="Group 365" transform="translate(0 27.083)">
        <g id="Group_364" data-name="Group 364">
          <path id="Path_462" data-name="Path 462" d="M132.617,125.952,79.663,34.233a14.3,14.3,0,0,0-24.77,0L1.939,125.952A14.3,14.3,0,0,0,14.324,147.4H120.232a14.3,14.3,0,0,0,12.385-21.452Zm-4.684,11.6a8.8,8.8,0,0,1-7.7,4.446H14.324a8.892,8.892,0,0,1-7.7-13.338L59.577,36.938a8.893,8.893,0,0,1,15.4,0l52.954,91.718A8.8,8.8,0,0,1,127.932,137.548Z" transform="translate(0 -27.083)" fill="#e44"/>
          <path id="Path_463" data-name="Path 463" d="M363.773,423.172h-.27a2.7,2.7,0,1,0,0,5.409h.27a2.7,2.7,0,1,0,0-5.409Z" transform="translate(-265.979 -319.079)" fill="#e44"/>
          <path id="Path_464" data-name="Path 464" d="M100.651,69.99a3.483,3.483,0,0,0-6.034,0L41.661,161.709a3.483,3.483,0,0,0,3.018,5.222h71.164a2.7,2.7,0,0,0,0-5.409H48.015L97.633,75.581l49.618,85.941h-7.518a2.7,2.7,0,1,0,0,5.409h10.854a3.483,3.483,0,0,0,3.016-5.225Z" transform="translate(-30.356 -57.428)" fill="#e44"/>
          <path id="Path_465" data-name="Path 465" d="M231.345,355.907a8.79,8.79,0,1,0-8.79-8.79A8.8,8.8,0,0,0,231.345,355.907Zm0-12.17a3.381,3.381,0,1,1-3.381,3.381A3.384,3.384,0,0,1,231.345,343.737Z" transform="translate(-164.067 -256.532)" fill="#e44"/>
          <path id="Path_466" data-name="Path 466" d="M233.242,207.742a8.123,8.123,0,0,0,8.113-8.113V176.641a8.113,8.113,0,1,0-16.227,0v22.988A8.122,8.122,0,0,0,233.242,207.742Zm-2.7-31.1a2.7,2.7,0,1,1,5.409,0v22.988a2.7,2.7,0,0,1-5.409,0Z" transform="translate(-165.964 -131.355)" fill="#e44"/>
        </g>
      </g>
    </g>
  </g>
</svg>
