<svg xmlns="http://www.w3.org/2000/svg" width="14.633" height="9.85" viewBox="0 0 14.633 9.85">
  <path id="Path_409" data-name="Path 409" d="M8.317,5.813a6.507,6.507,0,0,1,5.867,3.612,6.5,6.5,0,0,1-5.867,3.612A6.5,6.5,0,0,1,2.45,9.425,6.507,6.507,0,0,1,8.317,5.813m0-1.313A7.865,7.865,0,0,0,1,9.425a7.9,7.9,0,0,0,14.633,0A7.865,7.865,0,0,0,8.317,4.5Zm0,3.283A1.642,1.642,0,1,1,6.654,9.425,1.653,1.653,0,0,1,8.317,7.783m0-1.313A2.955,2.955,0,1,0,11.31,9.425,2.979,2.979,0,0,0,8.317,6.47Z" transform="translate(-1 -4.5)" fill="#fff"/>
</svg>
