<svg xmlns="http://www.w3.org/2000/svg" xmlns:xlink="http://www.w3.org/1999/xlink" width="24" height="24" viewBox="0 0 24 24">
  <defs>
    <clipPath id="clip-path">
      <rect id="Rectangle_94" data-name="Rectangle 94" width="24" height="24" transform="translate(36.456 32.65)" fill="#0373a4" opacity="0.22"/>
    </clipPath>
  </defs>
  <g id="Mask_Group_10" data-name="Mask Group 10" transform="translate(-36.456 -32.65)" clip-path="url(#clip-path)">
    <g id="favorite_border_black_24dp_1_" data-name="favorite_border_black_24dp (1)" transform="translate(36.456 32.65)">
      <path id="Path_228" data-name="Path 228" d="M0,0H24V24H0Z" fill="none"/>
      <path id="Path_229" data-name="Path 229" d="M16.5,3A5.988,5.988,0,0,0,12,5.09,5.988,5.988,0,0,0,7.5,3,5.447,5.447,0,0,0,2,8.5c0,3.78,3.4,6.86,8.55,11.54L12,21.35l1.45-1.32C18.6,15.36,22,12.28,22,8.5A5.447,5.447,0,0,0,16.5,3ZM12.1,18.55l-.1.1-.1-.1C7.14,14.24,4,11.39,4,8.5A3.418,3.418,0,0,1,7.5,5a3.909,3.909,0,0,1,3.57,2.36h1.87A3.885,3.885,0,0,1,16.5,5,3.418,3.418,0,0,1,20,8.5C20,11.39,16.86,14.24,12.1,18.55Z" fill="#0373a4"/>
    </g>
  </g>
</svg>
