<svg xmlns="http://www.w3.org/2000/svg" xmlns:xlink="http://www.w3.org/1999/xlink" width="24" height="24" viewBox="0 0 24 24">
  <defs>
    <clipPath id="clip-path">
      <rect id="Rectangle_86" data-name="Rectangle 86" width="24" height="24" fill="#bbb"/>
    </clipPath>
  </defs>
  <g id="Mask_Group_2" data-name="Mask Group 2" clip-path="url(#clip-path)">
    <g id="i1">
      <path id="Path_212" data-name="Path 212" d="M0,0H24V24H0Z" fill="none"/>
      <path id="Path_213" data-name="Path 213" d="M12,6a2,2,0,1,1-2,2,2.006,2.006,0,0,1,2-2m0,9c2.7,0,5.8,1.29,6,2v1H6v-.99C6.2,16.29,9.3,15,12,15M12,4a4,4,0,1,0,4,4A4,4,0,0,0,12,4Zm0,9c-2.67,0-8,1.34-8,4v3H20V17C20,14.34,14.67,13,12,13Z" fill="#bbb"/>
    </g>
  </g>
</svg>
