<svg xmlns="http://www.w3.org/2000/svg" xmlns:xlink="http://www.w3.org/1999/xlink" width="24" height="24" viewBox="0 0 24 24">
  <defs>
    <clipPath id="clip-path">
      <rect id="Rectangle_90" data-name="Rectangle 90" width="24" height="24" transform="translate(24 15)" fill="#bbb"/>
    </clipPath>
  </defs>
  <g id="Mask_Group_5" data-name="Mask Group 5" transform="translate(-24 -15)" clip-path="url(#clip-path)">
    <g id="i3" transform="translate(24 15)">
      <path id="Path_218" data-name="Path 218" d="M0,0H24V24H0Z" fill="none"/>
      <path id="Path_219" data-name="Path 219" d="M12,12a2,2,0,1,1,2-2A2.006,2.006,0,0,1,12,12Zm6-1.8a6,6,0,1,0-12,0c0,2.34,1.95,5.44,6,9.14C16.05,15.64,18,12.54,18,10.2ZM12,2a7.955,7.955,0,0,1,8,8.2q0,4.98-8,11.8Q4.005,15.175,4,10.2A7.955,7.955,0,0,1,12,2Z" fill="#bbb"/>
    </g>
  </g>
</svg>
