<svg xmlns="http://www.w3.org/2000/svg" width="135.013" height="163.184" viewBox="0 0 135.013 163.184">
  <g id="Group_362" data-name="Group 362" transform="translate(-616.803 -285.208)">
    <circle id="Ellipse_20" data-name="Ellipse 20" cx="53" cy="53" r="53" transform="translate(645.816 285.208)" fill="rgba(252,184,19,0.2)"/>
    <g id="file-error-svgrepo-com_1_" data-name="file-error-svgrepo-com (1)" transform="translate(552.77 302.629)">
      <g id="Group_369" data-name="Group 369" transform="translate(85.07 46.694)">
        <g id="Group_368" data-name="Group 368">
          <path id="Path_474" data-name="Path 474" d="M201.744,164.017h-60.4a3.413,3.413,0,0,0,0,6.826h60.4a3.413,3.413,0,1,0,0-6.826Z" transform="translate(-137.927 -164.017)" fill="#e44"/>
        </g>
      </g>
      <g id="Group_371" data-name="Group 371" transform="translate(85.07 67.288)">
        <g id="Group_370" data-name="Group 370">
          <path id="Path_475" data-name="Path 475" d="M201.744,236.355h-60.4a3.413,3.413,0,0,0,0,6.826h60.4a3.413,3.413,0,1,0,0-6.826Z" transform="translate(-137.927 -236.355)" fill="#e44"/>
        </g>
      </g>
      <g id="Group_373" data-name="Group 373" transform="translate(64.034 -0.001)">
        <g id="Group_372" data-name="Group 372" transform="translate(0 0)">
          <path id="Path_476" data-name="Path 476" d="M173.332,29.448a3.41,3.41,0,0,0-.993-2.323l-26.1-26.1A3.4,3.4,0,0,0,143.8,0H71.226a7.2,7.2,0,0,0-7.188,7.188V92.411c0,.03,0,.059,0,.089a5.085,5.085,0,0,0,2.415,4.208l11.773,7.307a11.875,11.875,0,0,0,12.6,0L98.91,99a5.089,5.089,0,0,1,5.4,0l8.08,5.015a11.872,11.872,0,0,0,12.6,0L133.068,99a5.09,5.09,0,0,1,5.4,0l8.08,5.015a11.872,11.872,0,0,0,12.6,0l11.774-7.307a5.085,5.085,0,0,0,2.415-4.207c0-.03,0-.059,0-.089V29.538A.879.879,0,0,0,173.332,29.448ZM147.213,11.653h0l14.472,14.472H147.572a.36.36,0,0,1-.359-.359V11.653Zm19.3,79.756-10.966,6.806a5.089,5.089,0,0,1-5.4,0l-8.08-5.015a11.876,11.876,0,0,0-12.6,0l-8.08,5.015a5.09,5.09,0,0,1-5.4,0L107.91,93.2a11.872,11.872,0,0,0-12.6,0l-8.08,5.015a5.09,5.09,0,0,1-5.4,0L70.866,91.409l0-84.222a.363.363,0,0,1,.362-.362h69.162V25.766a7.193,7.193,0,0,0,7.185,7.185h18.941Z" transform="translate(-64.038 0.001)" fill="#e44"/>
        </g>
      </g>
      <g id="Group_375" data-name="Group 375" transform="translate(64.033 107.553)">
        <g id="Group_374" data-name="Group 374" transform="translate(0)">
          <path id="Path_477" data-name="Path 477" d="M173.335,382.955c0-.009,0-.017,0-.026s0-.017,0-.026a5.12,5.12,0,0,0-7.819-4.35l-10.09,6.262a4.872,4.872,0,0,1-5.167,0l-8.312-5.159a11.652,11.652,0,0,0-12.366,0l-8.312,5.159a4.872,4.872,0,0,1-5.168,0l-8.312-5.159a11.655,11.655,0,0,0-12.366,0l-8.312,5.159a4.871,4.871,0,0,1-5.167,0l-10.089-6.262a5.12,5.12,0,0,0-7.819,4.35c0,.009,0,.017,0,.026s0,.017,0,.026v25.851a7.2,7.2,0,0,0,7.188,7.188h94.927a7.2,7.2,0,0,0,7.188-7.188Zm-7.186,26.214H71.222a.363.363,0,0,1-.362-.362V385.97l7.483,4.645a11.657,11.657,0,0,0,12.366,0l8.312-5.159a4.871,4.871,0,0,1,5.168,0l8.312,5.159a11.656,11.656,0,0,0,12.367,0l8.312-5.159a4.87,4.87,0,0,1,5.168,0l8.312,5.159a11.656,11.656,0,0,0,12.366,0l7.483-4.645v22.837A.362.362,0,0,1,166.149,409.169Z" transform="translate(-64.033 -377.784)" fill="#e44"/>
        </g>
      </g>
    </g>
  </g>
</svg>
