<svg xmlns="http://www.w3.org/2000/svg" xmlns:xlink="http://www.w3.org/1999/xlink" width="30" height="30" viewBox="0 0 30 30">
  <defs>
    <clipPath id="clip-path">
      <rect id="Base" width="20" height="20" transform="translate(4093 3751)" fill="#777"/>
    </clipPath>
  </defs>
  <g id="p5" transform="translate(-4088 -3746)">
    <rect id="Base-2" data-name="Base" width="30" height="30" transform="translate(4088 3746)" fill="none"/>
    <g id="Mask_Group_22" data-name="Mask Group 22" clip-path="url(#clip-path)">
      <g id="feed_black_24dp" transform="translate(4093 3751)">
        <g id="Group_219" data-name="Group 219">
          <path id="Path_251" data-name="Path 251" d="M0,0H20V20H0Z" fill="none"/>
        </g>
        <g id="Group_220" data-name="Group 220">
          <path id="Path_252" data-name="Path 252" d="M13.333,2.5H4.167A1.672,1.672,0,0,0,2.5,4.167V15.833A1.672,1.672,0,0,0,4.167,17.5H15.833A1.672,1.672,0,0,0,17.5,15.833V6.667Zm2.5,13.333H4.167V4.167H12.5V7.5h3.333Zm-10-1.667h8.333V12.5H5.833ZM10,5.833H5.833V7.5H10Zm-4.167,5h8.333V9.167H5.833Z" fill="#777"/>
        </g>
      </g>
    </g>
  </g>
</svg>
