<svg xmlns="http://www.w3.org/2000/svg" xmlns:xlink="http://www.w3.org/1999/xlink" width="24" height="24" viewBox="0 0 24 24">
  <defs>
    <clipPath id="clip-path">
      <rect id="Rectangle_97" data-name="Rectangle 97" width="24" height="24" transform="translate(465 317)" fill="#1aafd1"/>
    </clipPath>
  </defs>
  <g id="Mask_Group_14" data-name="Mask Group 14" transform="translate(-465 -317)" clip-path="url(#clip-path)">
    <g id="payments_black_24dp_2_" data-name="payments_black_24dp (2)" transform="translate(465 317)">
      <rect id="Rectangle_99" data-name="Rectangle 99" width="24" height="24" fill="none"/>
      <path id="Path_235" data-name="Path 235" d="M19,14V6a2.006,2.006,0,0,0-2-2H3A2.006,2.006,0,0,0,1,6v8a2.006,2.006,0,0,0,2,2H17A2.006,2.006,0,0,0,19,14Zm-2,0H3V6H17ZM10,7a3,3,0,1,0,3,3A3,3,0,0,0,10,7ZM23,7V18a2.006,2.006,0,0,1-2,2H4V18H21V7Z" fill="#1aafd1"/>
    </g>
  </g>
</svg>
