<svg xmlns="http://www.w3.org/2000/svg" xmlns:xlink="http://www.w3.org/1999/xlink" width="20" height="20" viewBox="0 0 20 20">
  <defs>
    <clipPath id="clip-path">
      <rect id="Base" width="20" height="20" transform="translate(4093 3751)" fill="#777"/>
    </clipPath>
  </defs>
  <g id="Mask_Group_23" data-name="Mask Group 23" transform="translate(-4093 -3751)" clip-path="url(#clip-path)">
    <g id="qr_code_black_24dp" transform="translate(4093 3751)">
      <g id="Group_221" data-name="Group 221">
        <rect id="Rectangle_104" data-name="Rectangle 104" width="20" height="20" fill="none"/>
      </g>
      <g id="Group_223" data-name="Group 223">
        <g id="Group_222" data-name="Group 222">
          <path id="Path_253" data-name="Path 253" d="M2.5,9.167H9.167V2.5H2.5Zm1.667-5H7.5V7.5H4.167Z" fill="#777"/>
          <path id="Path_254" data-name="Path 254" d="M2.5,17.5H9.167V10.833H2.5Zm1.667-5H7.5v3.333H4.167Z" fill="#777"/>
          <path id="Path_255" data-name="Path 255" d="M10.833,2.5V9.167H17.5V2.5Zm5,5H12.5V4.167h3.333Z" fill="#777"/>
          <rect id="Rectangle_105" data-name="Rectangle 105" width="1.667" height="1.667" transform="translate(15.833 15.833)" fill="#777"/>
          <rect id="Rectangle_106" data-name="Rectangle 106" width="1.667" height="1.667" transform="translate(10.833 10.833)" fill="#777"/>
          <rect id="Rectangle_107" data-name="Rectangle 107" width="1.667" height="1.667" transform="translate(12.5 12.5)" fill="#777"/>
          <rect id="Rectangle_108" data-name="Rectangle 108" width="1.667" height="1.667" transform="translate(10.833 14.167)" fill="#777"/>
          <rect id="Rectangle_109" data-name="Rectangle 109" width="1.667" height="1.667" transform="translate(12.5 15.833)" fill="#777"/>
          <rect id="Rectangle_110" data-name="Rectangle 110" width="1.667" height="1.667" transform="translate(14.167 14.167)" fill="#777"/>
          <rect id="Rectangle_111" data-name="Rectangle 111" width="1.667" height="1.667" transform="translate(14.167 10.833)" fill="#777"/>
          <rect id="Rectangle_112" data-name="Rectangle 112" width="1.667" height="1.667" transform="translate(15.833 12.5)" fill="#777"/>
        </g>
      </g>
    </g>
  </g>
</svg>
