<svg xmlns="http://www.w3.org/2000/svg" width="126.513" height="126.887" viewBox="0 0 126.513 126.887">
  <g id="Group_1" data-name="Group 1" transform="translate(-0.722 0)">
    <path id="Path_1" data-name="Path 1" d="M122.059,227.774a5.186,5.186,0,0,0-5.39,5.13c-.259,19.408-11.453,36.95-28.58,46.355-25.808,14.174-55.968,1.451-67.525-15.806l16.3,3.394a5.229,5.229,0,0,0,2.151-10.235L6.961,249.876C5.1,249.436.2,250.783.768,255.81L4.81,288.147a5.027,5.027,0,0,0,5.13,4.586c4.016,0,5.649-2.954,5.39-5.934l-1.892-15.78c26.2,31.43,59.441,27.051,79.5,17.957a64.128,64.128,0,0,0,34.229-55.813A5.165,5.165,0,0,0,122.059,227.774Z" transform="translate(0 -168.755)" fill="#fff"/>
    <path id="Path_2" data-name="Path 2" d="M5.93,67.855a5.186,5.186,0,0,0,5.39-5.13c.259-19.408,11.453-36.95,28.58-46.355C65.707,2.2,95.868,14.918,107.424,32.175l-16.3-3.394a5.229,5.229,0,1,0-2.151,10.235l32.078,6.737c1.866.44,6.763-.907,6.193-5.934L123.2,7.482a5.027,5.027,0,0,0-5.13-4.586c-4.016,0-5.649,2.954-5.39,5.934l1.866,15.78C88.354-6.8,55.109-2.442,35.054,6.678A64.164,64.164,0,0,0,.8,62.466,5.186,5.186,0,0,0,5.93,67.855Z" transform="translate(-0.057 0)" fill="#fff"/>
  </g>
</svg>
