<svg xmlns="http://www.w3.org/2000/svg" xmlns:xlink="http://www.w3.org/1999/xlink" width="14" height="14" viewBox="0 0 14 14">
  <defs>
    <clipPath id="clip-path">
      <rect id="Rectangle_139" data-name="Rectangle 139" width="14" height="14" transform="translate(0.418)" fill="#4b9e90"/>
    </clipPath>
  </defs>
  <g id="Mask_Group_31" data-name="Mask Group 31" transform="translate(-0.418)" clip-path="url(#clip-path)">
    <g id="published_with_changes_black_24dp">
      <rect id="Rectangle_140" data-name="Rectangle 140" width="14" height="14" transform="translate(0.418)" fill="none"/>
      <path id="Path_269" data-name="Path 269" d="M10.683,11.2h1.4v1.167h-3.5v-3.5H9.75v1.593A4.657,4.657,0,0,0,7.417,2.2V1.025A5.828,5.828,0,0,1,10.683,11.2ZM2.167,6.829A4.638,4.638,0,0,1,3.917,3.2V4.788H5.083v-3.5h-3.5V2.454h1.4A5.828,5.828,0,0,0,6.25,12.633V11.455A4.669,4.669,0,0,1,2.167,6.829ZM9.307,4.56l-3.3,3.3L4.354,6.211l-.822.823L6.005,9.507l4.124-4.124Z" transform="translate(0.966 0.549)" fill="#4b9e90"/>
    </g>
  </g>
</svg>
