<svg xmlns="http://www.w3.org/2000/svg" width="155.979" height="130.279" viewBox="0 0 155.979 130.279">
  <g id="Group_362" data-name="Group 362" transform="translate(-24.304)">
    <ellipse id="Ellipse_20" data-name="Ellipse 20" cx="45.5" cy="46" rx="45.5" ry="46" transform="translate(89.283 0.456)" fill="rgba(36,182,247,0.2)"/>
    <g id="Group_367" data-name="Group 367" transform="translate(24.283 0)">
      <g id="lock_reset_black_24dp" transform="translate(0.021)">
        <rect id="Rectangle_224" data-name="Rectangle 224" width="130.279" height="130.279" fill="none"/>
        <path id="Path_496" data-name="Path 496" d="M70.568,16.285A48.859,48.859,0,0,0,21.713,65.14c0,.326.054.651.054,1.031l-9.988-9.988L4.126,63.837,27.142,86.853,50.158,63.837,42.5,56.183l-9.88,9.88c0-.326-.054-.6-.054-.923a38.079,38.079,0,1,1,11.508,27.2L36.37,99.989a48.843,48.843,0,1,0,34.2-83.7ZM81.425,59.711V54.283a10.857,10.857,0,0,0-21.713,0v5.428a5.444,5.444,0,0,0-5.428,5.428V81.425a5.444,5.444,0,0,0,5.428,5.428H81.425a5.444,5.444,0,0,0,5.428-5.428V65.14A5.444,5.444,0,0,0,81.425,59.711Zm-5.428,0H65.14V54.283a5.428,5.428,0,1,1,10.857,0Z" fill="#0373a4"/>
      </g>
    </g>
  </g>
</svg>
