<svg xmlns="http://www.w3.org/2000/svg" xmlns:xlink="http://www.w3.org/1999/xlink" width="24" height="24" viewBox="0 0 24 24">
  <defs>
    <clipPath id="clip-path">
      <rect id="Rectangle_220" data-name="Rectangle 220" width="24" height="24" transform="translate(52 14)" fill="#bbb"/>
    </clipPath>
  </defs>
  <g id="Mask_Group_43" data-name="Mask Group 43" transform="translate(-52 -14)" clip-path="url(#clip-path)">
    <g id="noun-supplier-3634758" transform="translate(49.303 13.744)">
      <path id="Path_482" data-name="Path 482" d="M8.345,4.93a.386.386,0,1,1-.386-.386.386.386,0,0,1,.386.386" transform="translate(1.332 1.178)" fill="#bbb"/>
      <path id="Path_483" data-name="Path 483" d="M10.768,4.93a.386.386,0,1,1-.386-.386.386.386,0,0,1,.386.386" transform="translate(1.998 1.178)" fill="#bbb"/>
      <path id="Path_484" data-name="Path 484" d="M11.268,6.361H10.5a.773.773,0,0,1-.772.772H8.178v.772H9.723A1.546,1.546,0,0,0,11.268,6.361Z" transform="translate(1.498 1.677)" fill="#bbb"/>
      <path id="Path_485" data-name="Path 485" d="M25.278,3.424a1.157,1.157,0,0,0-1.1-.792H15.767a3.042,3.042,0,0,0-.8-1.431L14.7.928l-.273.273a2.972,2.972,0,0,1-.662.5A2.452,2.452,0,0,0,12.552.357l-.2-.1-.187.124a4.2,4.2,0,0,1-2.336.707H9.055a3.24,3.24,0,0,0-3.2,3.772L6.11,6.366A1.539,1.539,0,0,0,7.36,8.811h.031A2.707,2.707,0,0,0,8.781,10.8l-.2.8A8.845,8.845,0,0,0,3.14,16.623l-.185.445a2.96,2.96,0,0,0,2.733,4.1h.129v3.089H25.123a.773.773,0,0,0,.772-.772V9.512a1.157,1.157,0,0,0,.772-1.087V7.59Zm-.732.244,1.2,3.6H22.721L21.755,3.4H24.18a.386.386,0,0,1,.367.264ZM14.31,6.494a.772.772,0,1,1,0,1.545ZM15.853,3.4H17.1l.965,3.861H15.855a1.534,1.534,0,0,0-.295-.9l.088-.531a15.217,15.217,0,0,0,.2-2.43Zm3.006,3.861L17.894,3.4h3.066l.965,3.861Zm-3.219.772h2.531v.386a.386.386,0,0,1-.386.386H15.469a.386.386,0,0,1-.353-.232,1.553,1.553,0,0,0,.525-.54Zm3.3,0h3.089v.386a.386.386,0,0,1-.386.386H19.33a.386.386,0,0,1-.386-.386ZM6.587,7.266a.773.773,0,0,1,.772-.772V8.039A.773.773,0,0,1,6.587,7.266ZM7.36,5.336v.386a1.531,1.531,0,0,0-.556.108l-.183-1.1A2.467,2.467,0,0,1,9.054,1.86h.775a4.967,4.967,0,0,0,2.56-.708,1.688,1.688,0,0,1,.67.877l.254.761.682-.341a3.777,3.777,0,0,0,.665-.425,2.272,2.272,0,0,1,.423,1.313,14.473,14.473,0,0,1-.2,2.369l-.021.122a1.523,1.523,0,0,0-.556-.108V5.336a1.16,1.16,0,0,0-1.158-1.158H11.993a1.546,1.546,0,0,1-1.545-1.545H9.677a2.307,2.307,0,0,0,.132.772H9.29A1.933,1.933,0,0,0,7.36,5.336Zm.772,3.089V5.336A1.16,1.16,0,0,1,9.29,4.177h.977a2.312,2.312,0,0,0,1.726.772h1.158a.386.386,0,0,1,.386.386V8.425a1.933,1.933,0,0,1-1.931,1.931H10.063A1.933,1.933,0,0,1,8.132,8.425Zm13.129,2.7h.772V11.9h-.772Zm1.545,1.545V11.128h.772v3.861H19.716V11.128h.772v1.545Zm-1.545,3.089v.772H19.716v-.772Zm.772,1.545V15.761h1.545V21.94H17.4V20.806a2.959,2.959,0,0,0,1.317-3.737l-.185-.445a8.957,8.957,0,0,0-.415-.862h.829v1.545h3.089Zm-4.215-.385.185.445a2.188,2.188,0,0,1-2.02,3.03H14.31V18.85H17.4v-.772H15.855V16.534h-.772v1.545H13.538v-.772a.773.773,0,0,0-.772-.772h-.494l-.634-1.9.294-.588.965.772,1.025-2.05a8.074,8.074,0,0,1,3.9,4.154ZM8.9,18.85a.772.772,0,0,1,0,1.545H8.132V18.85Zm0,2.317a1.545,1.545,0,1,0,0-3.089v-.772h3.861v.772a1.545,1.545,0,1,0,0,3.089v.772H8.9Zm1.172-8.383-1.04.832-.578-1.156c.143-.054.287-.1.433-.15Zm.759.382.48.384-.333.666h-.295l-.333-.666Zm-.108,1.822h.216l.515,1.545H10.212Zm2.811,3.861V20.4h-.772a.772.772,0,0,1,0-1.545Zm-.326-6.39-.578,1.156-1.04-.832,1.185-.474q.22.069.433.15Zm-3.149-1.333h1.545a2.681,2.681,0,0,0,.553-.058l.149.6-1.474.59-1.474-.59.149-.6a2.714,2.714,0,0,0,.553.057ZM3.5,18.206a2.168,2.168,0,0,1,.168-.841l.185-.445a8.076,8.076,0,0,1,3.9-4.154l1.025,2.05.965-.772.294.588-.634,1.9H8.9a.773.773,0,0,0-.772.772v.772H6.588V16.533H5.815v1.545H4.271v.772H7.36v1.545H5.687A2.191,2.191,0,0,1,3.5,18.206Zm3.089,2.961H8.132v.772a.773.773,0,0,0,.772.772h3.861a.773.773,0,0,0,.772-.772v-.772h1.545v2.317h-8.5Zm9.267,2.317V21.167h.129a2.944,2.944,0,0,0,.644-.073v.845a.773.773,0,0,0,.772.772h6.178a.773.773,0,0,0,.772-.772V11.127a.773.773,0,0,0-.772-.772H19.716a.773.773,0,0,0-.772.772v3.861H17.638A8.857,8.857,0,0,0,13.089,11.6l-.2-.8a2.709,2.709,0,0,0,1.39-1.992h.031c.024,0,.046-.006.069-.007a1.156,1.156,0,0,0,1.089.779h2.317a1.151,1.151,0,0,0,.772-.3,1.149,1.149,0,0,0,.772.3h2.317a1.151,1.151,0,0,0,.772-.3,1.149,1.149,0,0,0,.772.3h1.931v13.9ZM25.508,8.811H23.192a.386.386,0,0,1-.386-.386V8.038h3.089v.386A.386.386,0,0,1,25.508,8.811Z" fill="#bbb"/>
    </g>
  </g>
</svg>
