<svg xmlns="http://www.w3.org/2000/svg" width="11.811" height="11.811" viewBox="0 0 11.811 11.811">
  <path id="Path_499" data-name="Path 499" d="M5.144,3.788l-.831-.837a5.727,5.727,0,0,1,7.937,7.937l-.837-.837a4.509,4.509,0,0,0,.642-2.321A4.574,4.574,0,0,0,5.144,3.788Zm5.57,2.527-.808-.808L8.387,7.026l.808.808Zm1.215,7.5-1.3-1.3A5.727,5.727,0,0,1,2.691,4.573l-1.3-1.3L2.2,2.464,12.731,13ZM9.8,11.673,7.573,9.45l-.911.911-2.43-2.43.808-.808L6.662,8.745l.1-.1L3.528,5.4A4.574,4.574,0,0,0,9.8,11.673Z" transform="translate(-1.39 -2)" fill="#e44"/>
</svg>
