<svg xmlns="http://www.w3.org/2000/svg" xmlns:xlink="http://www.w3.org/1999/xlink" width="48" height="48" viewBox="0 0 48 48">
  <defs>
    <filter id="Base" x="0" y="0" width="48" height="48" filterUnits="userSpaceOnUse">
      <feOffset dy="4" input="SourceAlpha"/>
      <feGaussianBlur stdDeviation="4" result="blur"/>
      <feFlood flood-color="#2c2738" flood-opacity="0.039"/>
      <feComposite operator="in" in2="blur"/>
      <feComposite in="SourceGraphic"/>
    </filter>
  </defs>
  <g id="Controls_Checkbox_Normal" data-name="Controls/Checkbox/Normal" transform="translate(12 8)">
    <g transform="matrix(1, 0, 0, 1, -12, -8)" filter="url(#Base)">
      <g id="Base-2" data-name="Base" transform="translate(12 8)" fill="#fff" stroke-miterlimit="10">
        <path d="M 20 23.5 L 4 23.5 C 2.070090055465698 23.5 0.5 21.92991065979004 0.5 20 L 0.5 4 C 0.5 2.070090055465698 2.070090055465698 0.5 4 0.5 L 20 0.5 C 21.92991065979004 0.5 23.5 2.070090055465698 23.5 4 L 23.5 20 C 23.5 21.92991065979004 21.92991065979004 23.5 20 23.5 Z" stroke="none"/>
        <path d="M 4 1 C 2.345790863037109 1 1 2.345790863037109 1 4 L 1 20 C 1 21.65420913696289 2.345790863037109 23 4 23 L 20 23 C 21.65420913696289 23 23 21.65420913696289 23 20 L 23 4 C 23 2.345790863037109 21.65420913696289 1 20 1 L 4 1 M 4 0 L 20 0 C 22.20914077758789 0 24 1.790859222412109 24 4 L 24 20 C 24 22.20914077758789 22.20914077758789 24 20 24 L 4 24 C 1.790859222412109 24 0 22.20914077758789 0 20 L 0 4 C 0 1.790859222412109 1.790859222412109 0 4 0 Z" stroke="none" fill="#dbe2ea"/>
      </g>
    </g>
  </g>
</svg>
